Patient4_TMGait_0pt2_02_right_21_EMG.mot
version=1
nRows=19
nColumns=33
inDegrees=no
endheader
time	1LAddLong	2LGlutMax	3LGlutMed	4LIliopsoas	5LSemiMemb	6LBicFemLong	7LRecFem	8LVastMed	9LVastLat	10LGasMed	11LTibAnt	12lTibPost	13LPeroneusLong	14LSol	15LExtDigLong	16LFlexDigLong	17RAddLong	18RGlutMax	19RGlutMed	20RIliopsoas	21RSemiMemb	22RBicFemLong	23RRecFem	24RVastMed	25RVastLat	26RGasMed	27RTibAnt	28RTibPost	29RPeroneusLong	30RSol	31RExtDigLong	32RFlexDigLong
47.975	0.071716	-0.005951	-0.064697	0.015411	0.072937	0.06424	0.016937	0.007477	-0.002747	-0.008087	-0.006866	0.007782	0.066376	-0.02182	-0.011902	-0.005798	0.008392	0.038605	0.30197	0.005646	0.023041	0.005493	-0.020905	0.076904	0.13931	-0.010223	0.37125	-0.003052	0.068207	0.025635	0.001526	-0.013275
47.976	-0.007324	-0.008698	-0.076904	0.010834	0.02182	0.091553	0.004425	0.010681	-0.016174	-0.002136	-0.002747	0.014496	0.045776	-0.028992	-0.009308	-0.000763	0.002136	0.070343	0.11566	-0.012665	0.021973	0.014343	-0.07019	-0.029144	0.16296	-0.00946	0.51422	-0.00412	0.12253	0.085144	-0.000153	-0.010071
47.977	-0.013275	-0.009308	-0.077362	0.000305	-0.052185	0.12573	-0.042419	0.008392	-0.018311	0.009308	0.001984	0.011139	0.026093	-0.027466	-0.007782	0.007172	-0.003967	0.045776	-0.30579	-0.12466	0.019379	0.007172	-0.1294	-0.21622	0.058899	-0.010071	0.15945	-0.001373	0.15991	0.075073	-0.00061	-0.011597
47.978	-0.033112	-0.026245	0.023193	0.019836	-0.1413	0.15671	-0.03067	0.009613	-0.006256	0.038147	0.010681	0.015259	-0.008392	-0.002747	0.00946	-0.000305	-0.002441	-0.019226	-0.076752	-0.25253	0.015869	-0.005646	-0.1593	-0.32333	-0.039673	-0.011749	0.35828	-0.001373	0.33478	0.14038	-0.003204	-0.001984
47.979	-0.02655	-0.00412	0.013123	-0.003357	-0.2388	0.15976	-0.036163	0.017395	-0.022278	0.061035	0.001678	0.008087	-0.024719	-0.01709	0.011597	-0.011292	0.009155	-0.033264	-0.010834	-0.1944	0.02121	-0.012207	-0.18234	-0.24658	-0.005188	-0.002747	-0.233	0.007172	0.73013	0.060577	-0.003357	0.002747
47.98	-0.021362	-0.027771	0.024567	-0.000763	-0.3122	0.037842	-0.033722	0.006409	-0.076752	0.035553	-0.002289	0.015411	-0.006561	-0.024261	0.003357	-0.009308	-0.006866	-0.010986	-0.32516	-0.021057	0.036163	0.009155	-0.13855	-0.19028	0.037384	0.002289	-0.58472	-0.001526	0.36179	0.006866	-0.001526	-0.007935
47.981	0.017242	0.001526	0.032043	0	-0.21118	-0.076447	-0.055542	-0.002136	-0.11398	0.026245	-0.007477	0.010223	0.038605	-0.023651	0.007324	0.002747	0.006714	-0.058289	-0.39902	0.070343	0.019226	0.006714	-0.058136	-0.09491	0.34897	-0.002899	-0.2652	-0.002136	-0.087128	0.005951	-0.002441	-0.017395
47.982	0.032959	-0.015869	0.056152	0.000153	0.088654	-0.14923	-0.094147	0.007324	-0.028839	0.041656	0.00061	0.011444	0.01297	-0.027618	0.002136	-0.008392	0.018616	-0.024109	0.057068	0.13916	0.017548	-0.005188	0.11856	-0.1149	0.40527	-0.007019	-0.14801	-0.001984	-0.084991	-0.027313	-0.002441	-0.007629
47.983	0.024261	0.006409	0.062408	0.009613	0.23315	-0.11566	-0.051727	-0.001068	-0.00473	0.036469	0.006866	0.016174	-0.003357	0.010223	0.004578	-0.001221	0.011902	-0.018616	0.016785	0.23743	0.006714	-0.006866	0.13657	-0.11093	0.29785	0.001984	-0.059662	0	0.15045	-0.027618	-0.006561	-0.012817
47.984	-0.008087	-0.02182	0.035706	0.018158	0.2623	-0.083008	-0.070801	-0.002441	-0.005798	0.013733	0.001221	0.013733	0.012054	-0.007935	-0.00351	-0.007477	0.005341	-0.027161	-0.05249	0.20416	0.023499	-0.001526	0.039063	-0.072632	0.52506	-0.00824	0.065308	-0.000916	0.073853	-0.007477	-0.001831	-0.011292
47.985	-0.014191	-0.005646	0.009766	0.006714	0.11902	-0.061493	-0.094452	0.002747	0.002136	0.008087	-0.007019	0.015564	0.057983	-0.010376	0.001678	-0.016174	0.00885	-0.00885	0.2034	0.086212	0.012665	0.002594	-0.14694	0.015259	0.70465	-0.006409	-0.065308	0.000916	-0.31235	-0.067902	-0.000458	-0.010376
47.986	-0.011749	0.008087	-0.013428	-0.011444	0.034943	-0.086365	-0.053864	0.009155	0.041351	-0.001526	0	0.016785	0.038605	-0.012207	0.002899	0.005035	-0.009003	-0.056915	0.36392	0.11124	0.031738	0.041199	-0.15335	0.20783	0.55771	-0.006409	-0.077362	-0.002594	-0.52887	-0.049744	-0.005798	-0.014801
47.987	0.014801	0.019226	-0.019379	0.001831	0.009766	-0.11292	0.012817	-0.002899	0.096283	0.002594	-0.000916	0.019379	0.031128	-0.005951	0.002441	-0.005798	-0.033112	-0.041656	0.3096	0.12604	0.036163	0.012054	-0.099945	0.33508	-0.043182	-0.007019	-0.093994	-0.001068	0.177	0.046234	-0.000916	-0.011597
47.988	0.03006	0.030365	-0.001068	0.004272	0.043793	-0.10956	0.009766	-0.001831	0.081635	0.000305	-0.001221	0.014954	0.018005	-0.00351	-0.000305	0.005951	-0.019836	0.036774	0.60944	0.08255	0.028687	0.008545	-0.050507	0.3157	-0.4982	-0.002594	-0.029602	-0.001984	0.079651	0.035858	-0.001221	-0.010071
47.989	0.039368	0.038452	0.033264	0.006714	0.13458	0.003204	-0.020752	0.000153	0.03952	0.00824	-0.003357	0.013733	-0.015869	-0.010223	0.001831	0.001526	0.005188	0.040894	0.12451	-0.013428	0.005951	-0.020905	-0.02594	0.089569	-0.59555	-0.000916	0.023041	-0.007477	-0.08255	-0.029144	-0.001221	-0.009003
47.99	0.022736	-0.007477	0.059967	-0.007324	0.12726	0.078278	-0.014648	0.007477	0.017548	0.001373	0	0.001526	-0.002747	-0.025635	0.005188	0.001373	0.007019	0.041046	-0.4509	-0.049286	0.010834	-0.032349	0.013275	0.06012	-0.53711	-0.000916	0.14664	-0.005341	0.037689	-0.063324	0.001221	-0.008545
47.991	0.010681	-0.011749	0.037079	0.010071	0.097351	0.13153	0.005341	0.006104	0.002747	0.007782	0.005035	0.008698	-0.066528	0.003052	0.001831	0.001984	0.009766	0.039368	-0.63294	-0.066528	0.012665	-0.017395	0.19684	-0.18051	-0.72433	-0.006104	0.24521	-0.004883	-0.41626	-0.059509	-0.00061	-0.009308
47.992	-0.001221	-0.02182	0.021973	0.012512	0.031433	0.14725	-0.018005	0.012665	-0.011444	0.056	0.000916	0.010223	-0.10346	-0.005188	-0.001831	-0.016022	0.005188	0.010986	0.047607	-0.13473	0.015259	-0.012665	0.17288	-0.24674	-0.74356	-0.007019	0.25726	-0.00351	-0.70511	-0.05661	-0.00412	-0.015259
47.993	-0.015259	-0.022278	0.009308	0.006714	-0.00824	0.13016	-0.025024	0.013733	-0.010529	0.12039	-0.005798	0.012665	-0.014191	-0.018005	0.000153	-0.007629	-0.001221	-0.045319	0.30456	-0.056305	0.028534	-0.002289	-0.010071	-0.18982	-0.32837	-0.007324	0.58441	0.002899	0.33752	-0.12863	-0.001526	-0.013123
